<svg width="287" height="51" viewBox="0 0 287 51" fill="none" xmlns="http://www.w3.org/2000/svg">
<path d="M0 25.5C0 11.4167 11.4167 0 25.5 0H260.754C274.837 0 286.254 11.4167 286.254 25.5C286.254 39.5833 274.837 51 260.754 51H143.127H25.5C11.4168 51 0 39.5833 0 25.5Z" fill="#FFB800" fill-opacity="0.8"/>
<path d="M0 25.5C0 11.4167 11.4167 0 25.5 0H260.754C274.837 0 286.254 11.4167 286.254 25.5C286.254 39.5833 274.837 51 260.754 51H143.127H25.5C11.4168 51 0 39.5833 0 25.5Z" fill="url(#paint0_linear_13_14)" fill-opacity="0.2"/>
<defs>
<linearGradient id="paint0_linear_13_14" x1="143.127" y1="0" x2="143.127" y2="51" gradientUnits="userSpaceOnUse">
<stop offset="0.235"/>
<stop offset="1" stop-opacity="0"/>
</linearGradient>
</defs>
</svg>
